<?xml version="1.0" standalone="no"?>
<!DOCTYPE svg PUBLIC "-//W3C//DTD SVG 20010904//EN"
 "http://www.w3.org/TR/2001/REC-SVG-20010904/DTD/svg10.dtd">
<svg version="1.0" xmlns="http://www.w3.org/2000/svg"
 width="205.000000pt" height="205.000000pt" viewBox="0 0 205.000000 205.000000"
 preserveAspectRatio="xMidYMid meet">
<metadata>
Created by potrace 1.10, written by Peter Selinger 2001-2011
</metadata>
<g transform="translate(0.000000,205.000000) scale(0.100000,-0.100000)"
fill="#000000" stroke="none">
<path d="M645 2010 c-3 -6 1 -7 9 -4 18 7 21 14 7 14 -6 0 -13 -4 -16 -10z"/>
<path d="M630 1945 c-49 -58 -73 -122 -64 -171 5 -30 4 -31 -20 -27 -53 10
-106 -76 -106 -174 0 -23 -5 -45 -10 -48 -8 -5 -8 -11 0 -20 8 -9 7 -17 -3
-27 -38 -37 -43 -117 -12 -178 10 -20 10 -33 0 -67 -15 -52 -4 -176 20 -223 9
-17 13 -35 10 -40 -8 -13 23 -116 40 -130 8 -7 17 -27 21 -45 4 -25 10 -32 22
-28 11 5 13 3 7 -7 -5 -8 -4 -11 3 -6 6 4 9 13 6 21 -4 8 -10 12 -15 9 -5 -3
-9 9 -9 26 0 35 -17 73 -29 65 -8 -4 -17 33 -27 103 -1 13 -8 30 -15 38 -18
21 -2 17 21 -6 12 -12 18 -26 14 -32 -5 -7 -3 -8 6 -3 9 5 10 2 5 -14 -3 -12
-2 -21 4 -21 5 0 12 -10 14 -22 2 -13 3 -9 1 9 -2 29 -1 31 16 21 14 -9 16
-14 7 -20 -7 -4 8 -5 32 -2 25 3 49 8 54 11 6 3 7 1 3 -5 -4 -7 -14 -12 -22
-12 -7 0 -20 -14 -27 -32 -11 -26 -14 -29 -20 -15 -3 9 -2 17 4 17 6 0 8 4 4
10 -9 15 -35 0 -35 -21 0 -11 6 -22 14 -25 8 -3 17 -22 21 -42 3 -20 13 -58
21 -84 13 -41 20 -49 52 -58 57 -16 196 -12 241 6 36 14 43 23 74 97 28 68 38
82 56 82 17 0 27 -12 45 -58 37 -90 49 -103 106 -117 56 -13 131 -8 211 16 43
13 49 19 59 52 5 20 13 61 16 90 7 53 16 64 31 37 7 -13 13 -10 30 14 17 22
25 54 33 137 7 60 18 134 26 165 17 70 18 123 2 149 -10 16 -9 25 5 49 26 45
23 117 -8 145 -24 22 -24 24 -6 40 26 24 15 93 -24 145 -32 44 -100 101 -119
101 -12 0 -27 5 -32 10 -27 27 -416 112 -514 112 -71 0 -91 -5 -183 -50 -5 -2
-6 21 -2 52 4 31 3 56 -1 55 -5 0 -29 -24 -54 -54z m20 -15 c-9 -6 -11 -10 -3
-10 7 0 10 -7 7 -15 -4 -8 1 -17 10 -21 9 -3 16 -12 16 -20 0 -8 5 -14 10 -14
6 0 10 7 10 15 0 18 20 20 20 3 0 -7 5 -5 11 5 5 9 19 17 30 17 11 0 17 4 14
10 -4 6 1 7 11 3 10 -3 15 -2 12 3 -8 12 122 8 229 -7 46 -6 80 -15 77 -20 -3
-5 1 -10 8 -10 7 -1 -14 -7 -47 -14 l-60 -13 46 -1 c25 -1 54 5 65 13 20 15
58 12 83 -8 12 -9 13 -8 6 3 -6 11 -1 12 31 7 21 -4 43 -11 47 -16 5 -4 -2 -6
-15 -3 -13 2 -34 0 -48 -5 -24 -10 -23 -10 10 -10 84 0 136 -6 148 -19 12 -11
41 -18 65 -14 4 1 7 -4 6 -11 -4 -33 1 -41 16 -28 12 10 15 10 15 -3 0 -9 9
-21 20 -27 15 -8 19 -17 14 -32 -5 -16 -3 -20 9 -15 12 4 14 2 10 -10 -4 -11
-3 -14 5 -9 14 8 -17 -64 -33 -77 -6 -5 -2 -6 9 -3 13 5 17 2 13 -9 -4 -8 0
-21 8 -29 8 -7 11 -16 8 -20 -4 -3 -2 -6 4 -6 19 0 7 -116 -17 -161 -4 -9 -4
-22 1 -30 5 -8 9 -9 10 -4 1 6 4 -6 8 -25 8 -44 2 -100 -10 -100 -5 0 -7 12
-4 28 4 21 3 23 -3 7 -5 -11 -7 -42 -5 -70 3 -35 0 -52 -10 -60 -7 -5 -16 -17
-20 -25 -4 -12 -6 -11 -6 3 -1 9 -5 17 -10 17 -12 0 -24 69 -25 142 -1 40 -5
58 -14 58 -9 0 -10 5 -2 19 9 17 7 19 -18 16 -20 -3 -37 4 -53 19 -20 20 -28
21 -54 13 -16 -6 -33 -15 -37 -21 -4 -6 -8 -7 -8 -2 0 17 43 56 62 56 11 0 17
4 13 10 -8 13 -35 1 -70 -33 -43 -40 -111 -79 -132 -75 -13 3 -7 8 20 18 20 8
37 20 37 26 0 7 10 20 22 28 12 9 19 18 16 22 -4 3 -22 -10 -41 -30 -20 -20
-40 -36 -45 -36 -6 0 -17 -6 -24 -13 -21 -20 -100 -37 -120 -26 -27 14 -22 29
10 30 16 1 20 3 10 6 -16 4 -16 6 -4 19 8 7 16 18 18 24 2 6 19 16 39 23 19 7
36 17 38 22 1 6 9 9 17 7 8 -2 14 1 14 6 0 5 15 16 33 23 17 7 40 21 50 30 10
9 46 31 80 49 34 18 64 36 67 40 3 4 33 27 67 52 34 25 59 48 56 51 -5 5 -49
-18 -63 -33 -12 -13 -79 -60 -85 -60 -4 0 -19 -9 -35 -20 -15 -11 -30 -17 -34
-13 -3 3 -6 2 -6 -3 0 -5 -17 -18 -37 -29 -21 -11 -40 -22 -43 -26 -3 -3 -21
-14 -40 -25 -19 -10 -41 -25 -48 -31 -7 -7 -20 -13 -28 -13 -8 0 -14 -4 -14
-10 0 -5 -5 -10 -10 -10 -13 0 -68 -60 -76 -83 -3 -11 -12 -16 -20 -13 -9 3
-12 1 -9 -4 7 -12 3 -12 -20 -4 -13 6 -14 9 -3 16 9 7 2 8 -20 4 -23 -4 -31
-2 -26 6 4 6 3 8 -4 4 -6 -3 -18 1 -27 10 -14 14 -30 16 -108 10 -51 -3 -107
-8 -125 -11 -23 -3 -38 1 -52 15 -11 11 -20 16 -20 11 0 -6 5 -13 10 -16 6 -4
8 -11 5 -16 -4 -5 1 -9 10 -9 9 0 13 -5 10 -10 -4 -6 -11 -7 -17 -4 -7 4 -8 2
-4 -5 5 -7 -3 -21 -19 -35 -16 -13 -25 -31 -23 -42 2 -12 -2 -18 -11 -16 -12
3 -12 0 -1 -13 15 -18 7 -128 -10 -133 -5 -2 -10 -10 -10 -19 0 -9 -9 -4 -24
14 -28 33 -42 113 -20 113 8 0 14 5 14 12 0 6 -3 9 -6 5 -3 -3 -12 0 -19 6
-11 10 -9 20 11 54 22 38 35 76 15 44 -7 -11 -11 -10 -19 5 -15 29 -26 134
-14 134 6 0 13 -8 15 -17 3 -11 5 -7 6 10 1 17 -3 26 -9 22 -14 -9 -13 -2 6
31 13 25 15 25 11 6 -6 -27 27 -72 52 -71 10 0 8 3 -6 9 -13 5 -25 21 -28 37
-4 15 -10 36 -16 45 -11 22 -12 31 0 24 4 -3 7 17 6 45 -2 38 3 56 19 76 11
15 15 24 8 19 -6 -4 -12 -2 -12 3 0 6 4 11 9 11 5 0 11 9 14 20 6 24 48 43 60
26 4 -7 9 -3 13 11 4 13 10 21 13 18 4 -2 7 19 6 48 -2 59 5 79 17 51 5 -13 6
-8 2 14 -3 19 -1 32 5 32 5 0 12 -10 14 -22 3 -16 5 -13 6 10 1 22 -3 31 -10
26 -8 -4 -8 0 0 15 7 11 17 21 24 21 7 0 6 -4 -3 -10z m900 -330 c0 -5 -4 -10
-10 -10 -5 0 -10 5 -10 10 0 6 5 10 10 10 6 0 10 -4 10 -10z m-197 -269 c44
-17 79 -61 83 -105 9 -94 17 -131 31 -153 12 -19 13 -28 4 -51 l-12 -28 -172
-13 c-95 -7 -213 -15 -263 -18 l-91 -5 -39 41 c-33 35 -51 45 -114 61 -119 31
-146 26 -185 -33 -19 -30 -14 -47 9 -28 23 20 92 16 198 -9 54 -13 96 -25 94
-27 -2 -2 -83 -4 -180 -4 -173 -1 -177 0 -196 23 -25 29 -25 40 0 61 19 16 27
75 20 155 -1 15 12 36 37 62 37 37 43 39 133 49 92 10 94 10 162 -20 40 -17
77 -28 88 -24 10 3 27 1 38 -6 29 -18 158 4 229 40 90 44 92 45 126 32z m77
-21 c0 -5 -4 -10 -10 -10 -5 0 -10 5 -10 10 0 6 5 10 10 10 6 0 10 -4 10 -10z
m86 -331 c-9 -22 -15 -43 -14 -47 2 -12 -14 -42 -23 -42 -5 0 -6 14 -2 30 4
20 2 30 -7 30 -7 0 -10 -6 -7 -13 2 -7 -4 -24 -16 -37 -19 -24 -20 -24 -15 -3
7 26 -16 63 -39 63 -14 0 -14 -2 2 -20 15 -16 17 -32 13 -91 -9 -116 -48 -147
-185 -148 -66 -1 -74 1 -100 27 -27 27 -63 109 -63 143 0 26 24 48 59 54 33 6
34 5 19 -17 -30 -47 -29 -68 5 -89 18 -10 39 -18 47 -18 11 1 10 3 -2 6 -10 2
-18 9 -18 14 0 5 -7 9 -15 9 -28 0 -28 30 0 71 29 44 43 48 24 6 -16 -34 -4
-73 23 -81 43 -11 67 -6 87 20 25 31 27 57 6 74 -12 10 -13 6 -8 -23 4 -30 1
-38 -19 -51 -41 -27 -78 -5 -78 46 0 35 20 45 96 46 55 2 62 -1 74 -23 11 -20
11 -27 0 -40 -11 -13 -15 -13 -22 -3 -7 10 -8 9 -6 -4 2 -9 -8 -26 -21 -37
-13 -12 -21 -21 -17 -21 14 0 66 34 66 43 0 4 5 5 10 2 10 -6 15 23 11 55 -7
57 -9 55 41 54 45 -1 48 0 58 32 7 19 15 34 20 34 5 0 12 10 17 23 7 21 8 21
11 -6 2 -16 -4 -46 -12 -68z m-695 48 c52 -21 65 -50 15 -31 -9 3 -13 10 -10
15 3 5 0 9 -5 9 -6 0 -11 -4 -11 -9 0 -5 -15 -1 -33 8 -20 10 -53 16 -90 15
-31 -1 -57 3 -57 7 0 14 152 3 191 -14z m466 -73 c-3 -3 -12 -4 -19 -1 -8 3
-5 6 6 6 11 1 17 -2 13 -5z m-374 -21 c3 -5 -34 -7 -81 -5 -86 4 -111 -3 -39
-11 69 -7 107 -76 53 -97 -13 -5 -28 -15 -32 -22 -6 -10 -5 -10 7 -2 8 6 26
14 41 18 33 7 41 43 16 70 -26 29 -22 38 15 31 61 -13 71 -53 34 -144 -28 -68
-66 -91 -152 -91 -86 0 -127 14 -149 50 -21 37 -35 180 -17 180 6 0 11 -13 11
-28 0 -31 32 -72 56 -72 11 0 14 -5 9 -17 -5 -15 -4 -16 7 -5 11 11 6 19 -26
45 -47 40 -45 64 6 81 38 14 37 15 28 -29 -5 -21 1 -36 20 -55 24 -24 67 -26
92 -3 20 17 25 73 7 73 -6 0 -9 -6 -6 -12 10 -27 -12 -58 -40 -58 -41 0 -56
14 -56 49 0 47 25 60 115 61 42 0 79 -3 81 -7z m77 -8 c5 -3 10 -1 10 4 0 6 9
11 20 11 11 0 20 -4 20 -9 0 -5 2 -15 5 -23 3 -7 0 -20 -5 -28 -9 -13 -11 -13
-20 0 -7 12 -12 12 -22 2 -6 -6 -19 -12 -27 -12 -14 0 -14 1 -1 10 9 6 11 10
3 10 -7 0 -10 7 -6 17 4 10 2 14 -4 10 -6 -4 -16 0 -23 9 -12 13 -10 14 13 10
15 -2 31 -7 37 -11z"/>
<path d="M899 1889 c-18 -4 -12 -7 24 -10 26 -2 55 -1 65 2 23 9 -58 16 -89 8z"/>
<path d="M850 1820 c-13 -8 -12 -10 3 -10 9 0 17 5 17 10 0 12 -1 12 -20 0z"/>
<path d="M617 1806 c-4 -10 -7 -25 -6 -34 0 -11 4 -9 10 7 5 13 8 29 6 35 -2
5 -6 2 -10 -8z"/>
<path d="M692 1789 c12 -35 18 -37 18 -5 0 13 -6 26 -14 29 -12 5 -13 1 -4
-24z"/>
<path d="M919 1809 c-26 -5 -60 -16 -75 -24 -37 -19 -16 -19 33 -1 21 8 58 18
83 24 56 12 21 13 -41 1z"/>
<path d="M980 1781 c-66 -19 -135 -46 -95 -37 25 5 177 45 190 51 31 11 -40 1
-95 -14z"/>
<path d="M1208 1773 c7 -3 16 -2 19 1 4 3 -2 6 -13 5 -11 0 -14 -3 -6 -6z"/>
<path d="M1105 1760 c-16 -7 -17 -9 -3 -9 9 -1 20 4 23 9 7 11 7 11 -20 0z"/>
<path d="M770 1745 c-9 -10 -9 -15 -1 -15 6 0 11 5 11 11 0 5 5 7 10 4 6 -3
10 -1 10 4 0 16 -16 13 -30 -4z"/>
<path d="M1415 1747 c-71 -49 -317 -150 -362 -150 -7 0 -13 -4 -13 -8 0 -4
-15 -11 -32 -14 -34 -8 -58 -22 -58 -35 0 -4 17 1 37 11 21 10 49 19 63 19 14
0 30 4 35 9 10 9 67 29 103 36 40 7 252 119 252 132 0 16 -1 16 -25 0z"/>
<path d="M838 1733 c7 -3 16 -2 19 1 4 3 -2 6 -13 5 -11 0 -14 -3 -6 -6z"/>
<path d="M711 1708 c0 -14 -5 -28 -10 -30 -13 -5 -24 -48 -12 -48 6 0 12 5 12
10 2 14 5 22 13 42 4 9 6 25 3 35 -3 12 -5 9 -6 -9z"/>
<path d="M968 1723 c6 -2 18 -2 25 0 6 3 1 5 -13 5 -14 0 -19 -2 -12 -5z"/>
<path d="M580 1684 c0 -23 47 -80 58 -70 3 4 1 10 -5 14 -6 4 -20 23 -32 42
-17 28 -21 31 -21 14z"/>
<path d="M870 1680 c-9 -6 -10 -10 -3 -10 6 0 15 5 18 10 8 12 4 12 -15 0z"/>
<path d="M681 1604 c0 -11 3 -14 6 -6 3 7 2 16 -1 19 -3 4 -6 -2 -5 -13z"/>
<path d="M1270 1609 c0 -5 5 -7 10 -4 6 3 10 8 10 11 0 2 -4 4 -10 4 -5 0 -10
-5 -10 -11z"/>
<path d="M480 1578 c0 -5 18 -8 40 -8 22 0 40 2 40 4 0 2 -18 6 -40 8 -22 2
-40 0 -40 -4z"/>
<path d="M1201 1574 c0 -11 3 -14 6 -6 3 7 2 16 -1 19 -3 4 -6 -2 -5 -13z"/>
<path d="M590 1570 c34 -11 60 -11 35 0 -11 5 -29 8 -40 8 -16 0 -15 -2 5 -8z"/>
<path d="M470 1551 c0 -6 4 -13 10 -16 6 -3 7 1 4 9 -7 18 -14 21 -14 7z"/>
<path d="M905 1530 c-18 -12 -24 -20 -14 -20 18 0 56 26 49 34 -3 3 -19 -4
-35 -14z"/>
<path d="M1436 1535 c-9 -26 -7 -32 5 -12 6 10 9 21 6 23 -2 3 -7 -2 -11 -11z"/>
<path d="M1481 1506 c-12 -13 -19 -26 -14 -29 5 -3 16 3 23 14 8 10 20 19 27
19 7 0 13 5 13 10 0 17 -24 10 -49 -14z"/>
<path d="M1037 1503 c-4 -3 -7 -11 -7 -17 0 -6 5 -5 12 2 6 6 9 14 7 17 -3 3
-9 2 -12 -2z"/>
<path d="M1148 1493 c7 -3 16 -2 19 1 4 3 -2 6 -13 5 -11 0 -14 -3 -6 -6z"/>
<path d="M1380 1490 c-13 -8 -13 -10 2 -10 9 0 20 5 23 10 8 13 -5 13 -25 0z"/>
<path d="M832 1469 c-19 -30 -11 -31 21 -3 23 20 25 24 10 24 -10 0 -24 -9
-31 -21z"/>
<path d="M1070 1460 c0 -5 7 -7 15 -4 8 4 15 8 15 10 0 2 -7 4 -15 4 -8 0 -15
-4 -15 -10z"/>
<path d="M1320 1455 c-33 -19 -21 -19 21 0 19 8 27 14 19 14 -8 0 -26 -6 -40
-14z"/>
<path d="M1426 1462 c-2 -4 -1 -14 5 -22 7 -12 9 -10 9 8 0 23 -5 28 -14 14z"/>
<path d="M635 1430 c3 -5 11 -10 16 -10 6 0 7 5 4 10 -3 6 -11 10 -16 10 -6 0
-7 -4 -4 -10z"/>
<path d="M685 1410 c27 -12 43 -12 25 0 -8 5 -22 9 -30 9 -10 0 -8 -3 5 -9z"/>
<path d="M1250 1410 c-13 -8 -13 -10 2 -10 9 0 20 5 23 10 8 13 -5 13 -25 0z"/>
<path d="M1410 1410 c0 -5 7 -7 15 -4 8 4 15 8 15 10 0 2 -7 4 -15 4 -8 0 -15
-4 -15 -10z"/>
<path d="M520 1380 c0 -5 5 -10 11 -10 5 0 7 5 4 10 -3 6 -8 10 -11 10 -2 0
-4 -4 -4 -10z"/>
<path d="M760 1370 c0 -5 5 -10 10 -10 6 0 10 5 10 10 0 6 -4 10 -10 10 -5 0
-10 -4 -10 -10z"/>
<path d="M1475 1300 c-3 -5 -2 -10 4 -10 5 0 13 5 16 10 3 6 2 10 -4 10 -5 0
-13 -4 -16 -10z"/>
<path d="M483 1243 c9 -9 20 -13 24 -9 4 4 1 11 -7 16 -25 16 -35 11 -17 -7z"/>
<path d="M461 1214 c0 -11 3 -14 6 -6 3 7 2 16 -1 19 -3 4 -6 -2 -5 -13z"/>
<path d="M502 1140 c0 -19 2 -27 5 -17 2 9 2 25 0 35 -3 9 -5 1 -5 -18z"/>
<path d="M1482 1135 c0 -16 2 -22 5 -12 2 9 2 23 0 30 -3 6 -5 -1 -5 -18z"/>
<path d="M768 1273 c6 -2 18 -2 25 0 6 3 1 5 -13 5 -14 0 -19 -2 -12 -5z"/>
<path d="M1268 1163 c7 -3 16 -2 19 1 4 3 -2 6 -13 5 -11 0 -14 -3 -6 -6z"/>
<path d="M1353 1155 c0 -8 4 -15 9 -15 4 0 8 4 8 9 0 6 -4 12 -8 15 -5 3 -9
-1 -9 -9z"/>
<path d="M1243 1143 c9 -2 25 -2 35 0 9 3 1 5 -18 5 -19 0 -27 -2 -17 -5z"/>
<path d="M1308 1133 c7 -3 16 -2 19 1 4 3 -2 6 -13 5 -11 0 -14 -3 -6 -6z"/>
<path d="M1241 1091 c-48 -12 -76 -26 -110 -58 -25 -22 -43 -44 -40 -48 4 -3
51 7 105 24 101 32 172 39 191 20 6 -6 17 -9 25 -7 19 7 -64 88 -88 87 -11 -1
-48 -9 -83 -18z m121 -29 c6 -6 -9 -6 -44 0 -29 5 -55 12 -58 15 -9 10 92 -5
102 -15z m-117 -17 c-27 -7 -52 -12 -54 -9 -2 2 -13 -3 -25 -11 -30 -22 -43
-18 -15 4 33 25 47 29 99 30 l45 0 -50 -14z"/>
<path d="M1052 1060 c0 -14 2 -19 5 -12 2 6 2 18 0 25 -3 6 -5 1 -5 -13z"/>
<path d="M1223 907 c-37 -17 -26 -47 19 -54 22 -4 34 35 17 52 -10 10 -20 10
-36 2z m37 -23 c0 -2 -9 -4 -20 -4 -11 0 -20 4 -20 9 0 5 9 7 20 4 11 -3 20
-7 20 -9z"/>
<path d="M1340 805 c-7 -9 -8 -15 -2 -15 5 0 12 7 16 15 3 8 4 15 2 15 -2 0
-9 -7 -16 -15z"/>
<path d="M1300 770 c-9 -6 -10 -10 -3 -10 6 0 15 5 18 10 8 12 4 12 -15 0z"/>
<path d="M1308 733 c7 -3 16 -2 19 1 4 3 -2 6 -13 5 -11 0 -14 -3 -6 -6z"/>
<path d="M770 885 c15 -18 -1 -20 -18 -3 -15 15 -26 4 -18 -17 9 -23 36 -30
53 -12 19 18 11 47 -13 47 -13 0 -14 -3 -4 -15z"/>
<path d="M710 800 c0 -5 5 -10 11 -10 5 0 7 5 4 10 -3 6 -8 10 -11 10 -2 0 -4
-4 -4 -10z"/>
<path d="M993 903 c9 -2 25 -2 35 0 9 3 1 5 -18 5 -19 0 -27 -2 -17 -5z"/>
<path d="M1587 1773 c-10 -9 -9 -41 2 -47 4 -3 8 8 7 24 -1 17 -1 30 -2 30 0
0 -4 -3 -7 -7z"/>
<path d="M1546 1757 c3 -10 9 -15 12 -12 3 3 0 11 -7 18 -10 9 -11 8 -5 -6z"/>
<path d="M410 1710 c6 -11 13 -20 16 -20 2 0 0 9 -6 20 -6 11 -13 20 -16 20
-2 0 0 -9 6 -20z"/>
<path d="M332 1435 c0 -16 2 -22 5 -12 2 9 2 23 0 30 -3 6 -5 -1 -5 -18z"/>
<path d="M361 1434 c0 -11 3 -14 6 -6 3 7 2 16 -1 19 -3 4 -6 -2 -5 -13z"/>
<path d="M331 1374 c0 -11 3 -14 6 -6 3 7 2 16 -1 19 -3 4 -6 -2 -5 -13z"/>
<path d="M1582 1090 c11 -17 10 -22 -1 -29 -9 -6 -11 -18 -7 -34 3 -14 -1 -41
-11 -63 -9 -22 -18 -55 -20 -74 -2 -19 -10 -41 -17 -50 -7 -8 -16 -23 -20 -33
-3 -11 -15 -21 -25 -24 -19 -5 -35 -36 -31 -62 1 -8 -3 -10 -11 -5 -8 5 -10 3
-3 -7 10 -17 6 -59 -8 -76 -5 -7 -7 -17 -3 -23 3 -5 -1 -13 -10 -16 -11 -5
-13 -9 -5 -14 8 -5 6 -16 -7 -38 -17 -29 -17 -31 0 -50 9 -10 17 -26 17 -35 0
-9 5 -19 12 -23 8 -5 9 -1 5 12 -7 18 -6 18 8 -1 9 -11 14 -28 11 -38 -4 -16
-2 -16 12 -5 14 11 14 11 5 -6 -7 -13 -6 -29 3 -55 7 -20 13 -44 14 -54 0 -15
-55 -95 -81 -117 -3 -3 -19 -30 -35 -60 -16 -30 -32 -57 -35 -60 -4 -3 -10
-16 -14 -30 -8 -30 56 58 79 109 11 22 21 31 30 28 10 -4 13 -1 9 9 -4 10 0
12 13 7 17 -6 18 -5 4 12 -14 17 -14 18 8 6 19 -10 21 -15 11 -27 -11 -13 -9
-14 16 -8 18 4 26 3 22 -3 -4 -6 1 -17 11 -24 15 -13 16 -12 3 4 -7 9 -10 17
-6 17 9 0 135 -129 135 -139 0 -4 9 -7 20 -8 20 -2 20 -2 1 25 -26 36 -105
111 -163 154 -46 35 -47 35 -27 54 12 12 22 40 25 70 5 42 1 57 -25 105 -17
30 -40 64 -51 74 -13 12 -17 23 -11 34 11 21 30 125 33 179 2 34 8 48 28 62
76 54 156 350 95 350 -13 0 -13 -3 -3 -20z m-83 -760 c0 -8 -6 -1 -13 15 -7
17 -11 34 -8 40 6 10 20 -27 21 -55z"/>
<path d="M370 1055 c-14 -17 -5 -120 11 -130 5 -4 9 -13 9 -21 0 -15 39 -105
50 -114 3 -3 13 -17 23 -32 9 -15 29 -33 44 -40 18 -8 29 -23 31 -38 2 -14 9
-51 17 -82 l14 -57 -55 -58 -56 -58 4 -123 c1 -68 -1 -122 -6 -122 -32 0 -154
-105 -184 -157 -12 -22 -11 -23 20 -22 18 0 27 3 21 6 -22 8 -15 27 22 63 19
19 35 29 35 23 0 -6 -6 -13 -12 -16 -7 -2 -10 -8 -6 -12 10 -10 36 17 30 33
-2 6 1 12 8 12 6 0 8 5 4 12 -5 8 -2 9 10 5 9 -4 15 -3 12 1 -2 4 9 14 25 21
17 7 35 24 41 36 34 75 184 11 291 -124 38 -49 34 -24 -5 30 -48 64 -66 80
-135 116 -43 22 -63 28 -67 20 -2 -7 -5 -4 -5 6 -1 22 -61 25 -61 2 0 -8 -4
-15 -9 -15 -5 0 -8 44 -6 99 3 99 18 146 42 137 7 -3 10 1 7 8 -3 7 2 19 11
26 13 11 15 10 12 -1 -2 -8 1 -4 7 9 5 12 13 22 18 22 4 0 8 9 8 21 0 11 5 17
10 14 6 -3 10 -2 10 3 0 6 -6 12 -14 15 -12 5 -24 43 -31 105 -4 29 -23 52
-53 63 -16 6 -22 14 -18 25 3 8 2 13 -3 10 -5 -3 -11 9 -15 27 -5 22 -9 28
-15 19 -6 -10 -11 -10 -21 3 -12 14 -11 18 1 27 11 8 11 9 -4 4 -14 -5 -16 -1
-11 22 4 22 3 24 -6 12 -9 -12 -10 -7 -5 20 4 20 3 30 -2 23 -6 -9 -12 -3 -20
18 -11 27 -10 29 8 24 22 -7 23 -5 7 31 l-13 27 -6 -24 c-6 -21 -7 -20 -8 9
-1 23 3 32 15 32 8 0 12 5 9 10 -9 14 -21 12 -35 -5z"/>
<path d="M1651 1044 c0 -11 3 -14 6 -6 3 7 2 16 -1 19 -3 4 -6 -2 -5 -13z"/>
<path d="M331 894 c0 -11 3 -14 6 -6 3 7 2 16 -1 19 -3 4 -6 -2 -5 -13z"/>
<path d="M1478 843 c7 -3 16 -2 19 1 4 3 -2 6 -13 5 -11 0 -14 -3 -6 -6z"/>
<path d="M950 721 c0 -6 4 -13 10 -16 6 -3 7 1 4 9 -7 18 -14 21 -14 7z"/>
<path d="M1050 721 c0 -5 6 -14 14 -20 12 -10 13 -8 9 8 -5 21 -23 30 -23 12z"/>
<path d="M928 663 c7 -3 16 -2 19 1 4 3 -2 6 -13 5 -11 0 -14 -3 -6 -6z"/>
<path d="M1060 640 c0 -39 15 -39 16 0 1 17 -3 30 -7 30 -5 0 -9 -13 -9 -30z"/>
<path d="M930 640 l-25 -8 28 -1 c15 -1 27 4 27 9 0 6 -1 10 -2 9 -2 -1 -14
-5 -28 -9z"/>
<path d="M1109 634 c-4 -14 1 -28 17 -43 19 -18 22 -27 13 -42 -6 -11 -15 -17
-22 -13 -7 4 -9 4 -6 0 10 -11 -64 -82 -85 -81 -10 1 -36 16 -57 33 -21 18
-42 32 -48 32 -6 0 -15 9 -21 20 -11 20 2 55 25 72 6 5 6 8 -2 8 -22 0 -43
-31 -43 -65 0 -34 18 -53 103 -104 34 -21 41 -22 65 -10 15 7 43 30 63 51 19
21 41 38 47 38 15 0 16 36 2 45 -5 3 -10 15 -10 27 0 13 -5 18 -14 15 -10 -4
-16 2 -18 16 -3 22 -3 22 -9 1z"/>
<path d="M1188 643 c6 -2 10 -9 7 -14 -4 -5 1 -6 10 -2 13 5 14 7 3 14 -7 5
-17 8 -23 8 -5 0 -4 -3 3 -6z"/>
<path d="M635 631 c3 -5 1 -12 -5 -16 -5 -3 -9 -16 -9 -28 1 -20 2 -20 6 -2 3
11 11 25 19 31 13 10 12 12 -1 18 -9 3 -13 2 -10 -3z"/>
<path d="M1138 633 c7 -3 16 -2 19 1 4 3 -2 6 -13 5 -11 0 -14 -3 -6 -6z"/>
<path d="M1338 633 c7 -3 16 -2 19 1 4 3 -2 6 -13 5 -11 0 -14 -3 -6 -6z"/>
<path d="M955 610 c3 -5 8 -10 11 -10 2 0 4 5 4 10 0 6 -5 10 -11 10 -5 0 -7
-4 -4 -10z"/>
<path d="M502 590 c0 -14 2 -19 5 -12 2 6 2 18 0 25 -3 6 -5 1 -5 -13z"/>
<path d="M483 525 c0 -8 4 -12 9 -9 5 3 6 10 3 15 -9 13 -12 11 -12 -6z"/>
<path d="M1372 470 c0 -14 2 -19 5 -12 2 6 2 18 0 25 -3 6 -5 1 -5 -13z"/>
<path d="M581 464 c0 -11 3 -14 6 -6 3 7 2 16 -1 19 -3 4 -6 -2 -5 -13z"/>
<path d="M587 434 c-12 -13 10 -59 31 -62 12 -2 19 -9 16 -16 -3 -8 3 -22 13
-31 10 -10 22 -26 28 -35 40 -66 53 -80 58 -66 3 8 -1 17 -9 20 -8 3 -14 12
-14 21 0 8 -5 15 -11 15 -5 0 -7 4 -4 10 3 5 -5 21 -19 34 -14 13 -26 27 -26
32 0 5 -12 20 -25 33 -14 12 -23 27 -20 31 6 10 -10 22 -18 14z"/>
<path d="M1010 412 c-19 -2 -40 -9 -45 -16 -6 -8 -19 -16 -30 -19 -15 -3 -13
-5 8 -6 15 0 27 -5 27 -11 0 -14 70 -24 83 -11 8 8 0 11 -31 11 -33 0 -40 3
-36 15 7 17 74 21 74 5 0 -5 16 -10 35 -10 37 0 47 13 18 24 -48 17 -71 21
-103 18z"/>
<path d="M1410 400 c0 -19 3 -21 12 -12 9 9 9 15 0 24 -9 9 -12 7 -12 -12z"/>
<path d="M1366 374 c-8 -22 -4 -25 11 -9 7 8 9 16 4 19 -5 3 -12 -1 -15 -10z"/>
<path d="M1572 350 c0 -14 2 -19 5 -12 2 6 2 18 0 25 -3 6 -5 1 -5 -13z"/>
<path d="M1085 330 c-3 -5 -1 -10 4 -10 6 0 11 5 11 10 0 6 -2 10 -4 10 -3 0
-8 -4 -11 -10z"/>
<path d="M1451 324 c0 -11 3 -14 6 -6 3 7 2 16 -1 19 -3 4 -6 -2 -5 -13z"/>
<path d="M946 293 c-4 -11 -2 -13 9 -9 8 3 15 1 15 -4 0 -6 28 -10 63 -10 38
0 57 4 49 9 -10 6 -7 10 13 15 15 4 25 10 21 13 -3 3 -26 -2 -50 -11 -40 -15
-48 -15 -79 -2 -32 13 -36 13 -41 -1z"/>
<path d="M1315 300 c-3 -5 -1 -10 4 -10 6 0 11 5 11 10 0 6 -2 10 -4 10 -3 0
-8 -4 -11 -10z"/>
<path d="M1363 294 c-7 -7 -12 -28 -12 -46 l2 -33 4 30 c3 17 10 36 15 43 15
17 6 23 -9 6z"/>
<path d="M716 276 c3 -9 12 -16 20 -16 8 0 14 -4 14 -10 0 -5 11 -10 25 -10
36 0 31 14 -12 30 -21 8 -41 16 -46 18 -4 2 -4 -3 -1 -12z"/>
<path d="M1280 279 c0 -5 5 -7 10 -4 6 3 10 8 10 11 0 2 -4 4 -10 4 -5 0 -10
-5 -10 -11z"/>
<path d="M1447 269 c4 -13 8 -18 11 -10 2 7 -1 18 -6 23 -8 8 -9 4 -5 -13z"/>
<path d="M1247 257 c-22 -22 -19 -28 11 -20 23 6 26 12 14 29 -4 6 -13 4 -25
-9z"/>
<path d="M1008 243 c7 -3 16 -2 19 1 4 3 -2 6 -13 5 -11 0 -14 -3 -6 -6z"/>
<path d="M1220 216 c0 -2 7 -7 16 -10 8 -3 12 -2 9 4 -6 10 -25 14 -25 6z"/>
<path d="M740 204 c0 -6 7 -19 15 -30 8 -10 14 -14 14 -9 0 6 -6 19 -14 29 -8
11 -15 15 -15 10z"/>
<path d="M848 203 c6 -2 18 -2 25 0 6 3 1 5 -13 5 -14 0 -19 -2 -12 -5z"/>
<path d="M1330 199 c0 -5 5 -7 10 -4 6 3 10 8 10 11 0 2 -4 4 -10 4 -5 0 -10
-5 -10 -11z"/>
<path d="M890 190 c0 -13 18 -22 24 -11 3 5 -1 11 -9 15 -8 3 -15 1 -15 -4z"/>
<path d="M1295 186 c-23 -25 -26 -40 -4 -19 12 12 21 24 18 27 -2 2 -9 -1 -14
-8z"/>
<path d="M1584 180 c0 -13 4 -16 10 -10 7 7 7 13 0 20 -6 6 -10 3 -10 -10z"/>
<path d="M956 181 c-19 -7 -19 -8 2 -13 15 -4 22 -2 22 8 0 8 -1 14 -2 13 -2
0 -12 -4 -22 -8z"/>
<path d="M1106 183 c7 -4 14 -17 17 -28 5 -16 5 -15 4 4 -1 14 -9 26 -17 28
-10 3 -11 2 -4 -4z"/>
<path d="M1360 170 c0 -11 2 -20 4 -20 2 0 6 9 9 20 3 11 1 20 -4 20 -5 0 -9
-9 -9 -20z"/>
<path d="M797 161 c5 -19 76 -56 109 -56 13 -1 20 3 18 7 -3 4 -14 8 -24 8
-10 0 -20 3 -22 8 -1 4 -22 17 -44 28 -35 19 -41 19 -37 5z"/>
<path d="M1330 162 c0 -12 -4 -22 -10 -22 -5 0 -10 -8 -10 -17 0 -10 -7 -31
-15 -47 -8 -15 -15 -40 -15 -55 0 -21 6 -14 30 34 17 32 29 64 26 71 -2 6 1
17 7 23 8 8 8 14 -1 23 -9 9 -12 7 -12 -10z"/>
<path d="M1236 145 c4 -8 7 -15 9 -15 2 0 5 7 9 15 3 9 0 15 -9 15 -9 0 -12
-6 -9 -15z"/>
<path d="M1208 118 c-21 -20 -56 -38 -73 -38 -8 0 -15 -7 -15 -15 0 -12 7 -11
38 6 20 11 46 29 57 40 21 21 15 27 -7 7z"/>
<path d="M1635 120 c3 -5 8 -10 11 -10 2 0 4 5 4 10 0 6 -5 10 -11 10 -5 0 -7
-4 -4 -10z"/>
<path d="M1120 109 c0 -5 5 -7 10 -4 6 3 10 8 10 11 0 2 -4 4 -10 4 -5 0 -10
-5 -10 -11z"/>
<path d="M1547 89 c7 -7 15 -10 18 -7 3 3 -2 9 -12 12 -14 6 -15 5 -6 -5z"/>
<path d="M927 69 c6 -6 31 -12 55 -14 23 -1 32 0 18 2 -14 3 -29 9 -34 14 -6
5 -19 9 -30 9 -15 0 -17 -3 -9 -11z"/>
<path d="M1048 53 c6 -2 18 -2 25 0 6 3 1 5 -13 5 -14 0 -19 -2 -12 -5z"/>
<path d="M1731 34 c0 -11 3 -14 6 -6 3 7 2 16 -1 19 -3 4 -6 -2 -5 -13z"/>
<path d="M1630 10 c0 -5 5 -10 11 -10 5 0 7 5 4 10 -3 6 -8 10 -11 10 -2 0 -4
-4 -4 -10z"/>
</g>
</svg>
